<?xml version="1.0" encoding="utf-8"?>
<!-- Generator: Adobe Illustrator 16.0.0, SVG Export Plug-In . SVG Version: 6.00 Build 0)  -->
<!DOCTYPE svg PUBLIC "-//W3C//DTD SVG 1.0//EN" "http://www.w3.org/TR/2001/REC-SVG-20010904/DTD/svg10.dtd">
<svg version="1.0" id="Layer_1" xmlns="http://www.w3.org/2000/svg" xmlns:xlink="http://www.w3.org/1999/xlink" x="0px" y="0px"
	 width="500px" height="500px" viewBox="0 0 500 500" enable-background="new 0 0 500 500" xml:space="preserve">
<path fill="#97C258" d="M483.123,399.408c-9.769-31.27-25.117-53.797-44.303-71.646c14.536-29.68,22.722-62.998,22.722-98.215
	C461.542,105.722,360.81,5,237.004,5C113.202,5,12.49,105.722,12.49,229.546c0,123.805,100.712,224.532,224.514,224.532
	c47.067,0,90.772-14.592,126.891-39.434c-77.259,5.171-202.199-4.241-257.892-107.145h0.026
	c-13.648-22.86-21.654-49.449-21.654-77.954c0-84.165,68.476-152.641,152.629-152.641c84.166,0,152.638,68.477,152.638,152.641
	c0,20.574-4.154,40.168-11.577,58.098c-0.49-0.256-0.972-0.516-1.472-0.752c-6.479-3.265-56.255-27.688-61.682-30.396
	c-29.891-15.021-58.35-31.816-72.568-53.563c-2.346,6.638-4.186,8.982-5.33,21.726c-2.063,23.401,15.18,49.878,36.93,73.463
	c18.896,20.429,41.919,38.179,67.016,55.351c40.928,27.97,118.764,78.001,129.749,141.526c2.371-4.583,4.916-9.872,7.319-15.722
	C488.959,452.73,490.134,421.812,483.123,399.408z"/>
</svg>
